<svg xmlns="http://www.w3.org/2000/svg" viewBox="0 0 200 200" width="200" height="200">
  <rect x="0" y="0" width="200" height="200" rx="44" ry="44" fill="#f6f3ec"></rect>
  <g transform="translate(20 20) scale(0.8)">
    <g fill="none" stroke="#0d0d0d" stroke-width="6" stroke-linecap="round" stroke-linejoin="round">
      <path d="M 100 24 C 132 24 154 48 154 80 C 154 102 142 116 132 128 C 126 134 124 140 124 148 L 76 148 C 76 140 74 134 68 128 C 58 116 46 102 46 80 C 46 48 68 24 100 24 Z"></path>
      <path d="M 78 158 L 122 158"></path>
      <path d="M 82 168 L 118 168"></path>
      <path d="M 88 178 L 112 178"></path>
    </g>
    <g stroke="#0d0d0d" stroke-width="1.8" stroke-linecap="round" fill="none">
      <path d="M 76 78 L 98 60 L 128 76 L 112 108 Z"></path>
      <path d="M 98 60 L 112 108"></path>
    </g>
    <g fill="#0d0d0d">
      <circle cx="76" cy="78" r="4"></circle>
      <circle cx="98" cy="60" r="5"></circle>
      <circle cx="128" cy="76" r="4"></circle>
      <circle cx="112" cy="108" r="4"></circle>
    </g>
  </g>
</svg>